# xmcd
#
# Track frame offsets:
#	150
#	10841
#	21113
#	29929
#	40201
#	48919
#	62768
#	68351
#	81765
#	91443
#	104054
#	114954
#	130169
#	148113
#	162015
#	171995
#	184508
#	197368
#	212875
#
# Disc length: 3037 seconds
#
# Revision: 1
# Processed by: cddbd v1.5.2PL0 Copyright (c) Steve Scherf et al.
# Submitted via: EZCDAudioConverter 4.0.0.1
#
DISCID=030bdb13
DTITLE=Small Faces - The Immediate Years cd1
DYEAR=1900
DGENRE=
TTITLE0=You Really Got Me - Original
TTITLE1=Money Money - Original
TTITLE2=Whatcha Gonna Do Bout It - Original
TTITLE3=Hey Girl - Original
TTITLE4=My Minds Eye - Original
TTITLE5=All Or Nothing - Live
TTITLE6=Just Passing - Original (Original Mono)
TTITLE7=Here Come The Nice - Original
TTITLE8=Talk To You
TTITLE9=Itchycoo Park - Original
TTITLE10=Im Only Dreaming
TTITLE11=Tin Soldier - Original
TTITLE12=I Feel Much Better
TTITLE13=Lazy Sunday - Original (Original Mono)
TTITLE14=Rollin Over - Original (Original Mono)
TTITLE15=The Universal
TTITLE16=Donkey Rides A Penny A Glass
TTITLE17=Afterglow Of Your Love - Original Outtake (Mono Single Edit)
TTITLE18=Wham Bam Thank You Mam
EXTD=
EXTT0=
EXTT1=
EXTT2=
EXTT3=
EXTT4=
EXTT5=
EXTT6=
EXTT7=
EXTT8=
EXTT9=
EXTT10=
EXTT11=
EXTT12=
EXTT13=
EXTT14=
EXTT15=
EXTT16=
EXTT17=
EXTT18=
PLAYORDER=
